# xmcd
#
# Track frame offsets:
#	150
#	16260
#	31661
#	44803
#	58973
#	75597
#	90820
#	107326
#	124835
#	139131
#	156235
#	173576
#	187212
#	204157
#	224130
#	237900
#	253899
#	271695
#	286201
#	302190
#	316438
#
# Disc length: 4431 seconds
#
# Revision: 2
# Processed by: cddbd v1.5.2PL0 Copyright (c) Steve Scherf et al.
# Submitted via: dBpowerAMP V4.0
#
DISCID=29114d15
DTITLE=Various Artist - Hott Country Volume 247 Can
DYEAR=2016
DGENRE=Country
TTITLE0=Kenny Chesney With Pink - Setting The World On Fire
TTITLE1=Carrie Underwood - Dirty Laundry
TTITLE2=Dallas Smith - Autograph
TTITLE3=Brantley Gilbert - The Weekend
TTITLE4=Dean Brody - Bush Party
TTITLE5=Eric Church ft. Rhiannon Giddens - Kill A Word
TTITLE6=David James - Starts With A Girl
TTITLE7=Band Perry, The  - Comeback Kid
TTITLE8=High Valley - Every Week's Got A Friday
TTITLE9=Florida Georgia Line ft. Tim McGraw - May We All
TTITLE10=Keith Urban - Blue Ain't Your Color
TTITLE11=Doc Walker - Heaven On Dirt
TTITLE12=Raelynn - Love Triangle
TTITLE13=Ronnie Dunn with Kix Brooks - Damn Drunk
TTITLE14=Frankie Ballard - Cigarette
TTITLE15=Chris Lane - For Her
TTITLE16=Jessica Mitchell - Working On Whiskey
TTITLE17=Jason Benoit - All Wanna Party
TTITLE18=Aaron Goodvin - Woman In Love
TTITLE19=Hunter Brothers - Long Way To Love You
TTITLE20=Cold Creek County - Still That Way
EXTD=
EXTT0=
EXTT1=
EXTT2=
EXTT3=
EXTT4=
EXTT5=
EXTT6=
EXTT7=
EXTT8=
EXTT9=
EXTT10=
EXTT11=
EXTT12=
EXTT13=
EXTT14=
EXTT15=
EXTT16=
EXTT17=
EXTT18=
EXTT19=
EXTT20=
PLAYORDER=
